<svg width="62" height="14" viewBox="0 0 62 14" fill="none" xmlns="http://www.w3.org/2000/svg">
<path fill-rule="evenodd" clip-rule="evenodd" d="M7.99097 14C5.49011 14 3.17922 12.6658 1.92879 10.5C0.67836 8.33419 0.67836 5.66581 1.92879 3.5C3.17922 1.33419 5.49011 0 7.99097 0C11.857 0 14.991 3.13401 14.991 7C14.991 10.866 11.857 14 7.99097 14ZM31.002 14C28.5011 14 26.1902 12.6658 24.9398 10.5C23.6894 8.33419 23.6894 5.66581 24.9398 3.5C26.1902 1.33419 28.5011 0 31.002 0C34.868 0 38.002 3.13401 38.002 7C38.002 10.866 34.868 14 31.002 14ZM47.9508 10.5C49.2012 12.6658 51.5121 14 54.013 14C57.879 14 61.013 10.866 61.013 7C61.013 3.13401 57.879 0 54.013 0C51.5121 0 49.2012 1.33419 47.9508 3.5C46.7004 5.66581 46.7004 8.33419 47.9508 10.5Z" fill="#FF0000"/>
</svg>
